<svg width="3523" height="720" viewBox="0 0 3523 720" fill="none" xmlns="http://www.w3.org/2000/svg">
    <style>
        svg { color: #000; }
        @media (prefers-color-scheme: dark) { svg { color: #fff; } }
    </style>
    <path d="M767 720H406V203H564V516H609V158H361V720H0V3H158V516H203V0H767V720ZM425 273.388H463.387V235H425V273.388ZM505.613 273.387H544V235H505.613V273.387Z" fill="currentColor"/>
    <path d="M1167.83 522H969.494V209.72H1167.83V273.02H1018.87L1037.86 255.296V334.21H1153.06V394.134H1037.86V476.424L1018.87 458.7H1167.83V522ZM1304.37 527.486C1284.11 527.486 1266.53 522.985 1251.62 513.982C1236.71 504.979 1225.03 492.319 1216.59 476.002C1208.43 459.403 1204.35 439.991 1204.35 417.766C1204.35 395.259 1208.57 375.566 1217.01 358.686C1225.45 341.525 1237.41 328.161 1252.88 318.596C1268.64 309.031 1287.21 304.248 1308.59 304.248C1321.81 304.248 1334.05 306.639 1345.3 311.422C1356.84 316.205 1365.7 322.535 1371.89 330.412V203.812H1436.88V522H1375.69L1372.31 494.992C1366.68 504.557 1357.68 512.435 1345.3 518.624C1333.2 524.532 1319.56 527.486 1304.37 527.486ZM1319.98 467.984C1330.11 467.984 1338.97 465.874 1346.57 461.654C1354.44 457.153 1360.49 450.963 1364.71 443.086C1369.21 434.927 1371.47 425.643 1371.47 415.234C1371.47 404.543 1369.21 395.259 1364.71 387.382C1360.49 379.505 1354.44 373.456 1346.57 369.236C1338.97 364.735 1330.11 362.484 1319.98 362.484C1309.85 362.484 1300.99 364.735 1293.4 369.236C1285.8 373.737 1279.89 379.927 1275.67 387.804C1271.73 395.681 1269.76 404.825 1269.76 415.234C1269.76 425.643 1271.73 434.787 1275.67 442.664C1279.89 450.541 1285.8 456.731 1293.4 461.232C1300.99 465.733 1309.85 467.984 1319.98 467.984ZM1475.13 412.702C1475.13 391.321 1479.35 372.471 1487.79 356.154C1496.51 339.837 1508.47 327.036 1523.66 317.752C1539.13 308.468 1556.72 303.826 1576.41 303.826C1593.01 303.826 1607.22 307.202 1619.03 313.954C1631.13 320.706 1639.43 329.568 1643.93 340.54L1637.6 344.76L1642.66 311H1703.85V508.496C1703.85 533.535 1699.21 555.057 1689.93 573.062C1680.64 591.349 1667.42 605.275 1650.26 614.84C1633.1 624.687 1612.42 629.61 1588.23 629.61C1555.87 629.61 1529.57 620.889 1509.31 603.446C1489.06 586.285 1477.38 562.793 1474.29 532.972H1540.12C1540.68 544.788 1545.18 553.931 1553.62 560.402C1562.06 567.154 1573.46 570.53 1587.8 570.53C1603.56 570.53 1615.94 566.169 1624.94 557.448C1634.22 548.727 1638.87 536.911 1638.87 522V477.268L1646.04 482.754C1641.54 493.726 1632.82 502.588 1619.88 509.34C1606.93 516.092 1592.02 519.468 1575.14 519.468C1555.45 519.468 1538.01 514.967 1522.82 505.964C1507.9 496.961 1496.23 484.442 1487.79 468.406C1479.35 452.37 1475.13 433.802 1475.13 412.702ZM1540.54 411.014C1540.54 421.142 1542.65 430.145 1546.87 438.022C1551.09 445.618 1556.86 451.667 1564.17 456.168C1571.49 460.669 1579.93 462.92 1589.49 462.92C1599.34 462.92 1607.92 460.81 1615.23 456.59C1622.83 452.089 1628.6 446.04 1632.54 438.444C1636.76 430.567 1638.87 421.423 1638.87 411.014C1638.87 400.605 1636.76 391.743 1632.54 384.428C1628.6 376.832 1622.83 370.924 1615.23 366.704C1607.92 362.484 1599.2 360.374 1589.07 360.374C1579.5 360.374 1571.06 362.484 1563.75 366.704C1556.43 370.924 1550.67 376.832 1546.45 384.428C1542.51 392.024 1540.54 400.886 1540.54 411.014ZM1850.63 527.486C1829.53 527.486 1810.68 522.703 1794.08 513.138C1777.76 503.573 1764.82 490.491 1755.26 473.892C1745.97 457.012 1741.33 437.741 1741.33 416.078C1741.33 394.134 1745.83 374.863 1754.84 358.264C1764.12 341.384 1776.92 328.161 1793.24 318.596C1809.56 309.031 1828.26 304.248 1849.36 304.248C1871.59 304.248 1890.72 308.89 1906.76 318.174C1922.79 327.177 1935.17 340.118 1943.89 356.998C1952.61 373.597 1956.97 393.431 1956.97 416.5V432.958L1775.51 433.802L1776.36 393.712H1892.41C1892.41 382.459 1888.61 373.597 1881.01 367.126C1873.42 360.374 1863.01 356.998 1849.79 356.998C1838.81 356.998 1829.81 359.108 1822.78 363.328C1816.03 367.548 1810.96 374.159 1807.59 383.162C1804.21 391.883 1802.52 403.137 1802.52 416.922C1802.52 436.615 1806.46 451.245 1814.34 460.81C1822.5 470.094 1835.02 474.736 1851.9 474.736C1864.27 474.736 1874.54 472.626 1882.7 468.406C1890.86 464.186 1896.07 458.278 1898.32 450.682H1957.82C1954.16 474.033 1942.63 492.741 1923.21 506.808C1903.8 520.593 1879.61 527.486 1850.63 527.486ZM2183.52 209.72V522H2115.16V209.72H2183.52ZM2241.76 418.188H2166.64V357.42H2226.57C2243.16 357.42 2255.54 353.903 2263.7 346.87C2271.86 339.555 2275.94 328.583 2275.94 313.954C2275.94 299.325 2271.86 288.493 2263.7 281.46C2255.54 274.145 2243.16 270.488 2226.57 270.488H2166.64V209.72H2241.76C2263.14 209.72 2281.71 214.081 2297.46 222.802C2313.5 231.523 2325.88 243.761 2334.6 259.516C2343.6 274.989 2348.1 293.135 2348.1 313.954C2348.1 334.773 2343.6 353.059 2334.6 368.814C2325.88 384.287 2313.5 396.385 2297.46 405.106C2281.71 413.827 2263.14 418.188 2241.76 418.188ZM2430.52 311L2492.55 493.304L2460.9 568.42L2360.89 311H2430.52ZM2366.37 623.28V568.842H2402.24C2409.56 568.842 2415.61 567.857 2420.39 565.888C2425.17 564.2 2429.25 561.246 2432.63 557.026C2436 552.806 2439.1 546.898 2441.91 539.302L2527.58 311H2595.1L2487.91 567.998C2479.19 589.379 2468.5 604.853 2455.84 614.418C2443.46 624.265 2427.99 629.188 2409.42 629.188C2401.54 629.188 2393.94 628.625 2386.63 627.5C2379.6 626.656 2372.84 625.249 2366.37 623.28ZM2602.03 311H2747.2V365.016H2602.03V311ZM2707.11 522H2642.12V245.59H2707.11V522ZM2841.39 522H2776.41V203.812H2841.82V332.944C2848.29 323.941 2857.15 316.908 2868.4 311.844C2879.94 306.78 2892.6 304.248 2906.38 304.248C2931.42 304.248 2950.83 311.985 2964.62 327.458C2978.68 342.65 2985.72 364.031 2985.72 391.602V522H2920.73V407.216C2920.73 398.213 2919.18 390.477 2916.09 384.006C2912.99 377.535 2908.63 372.471 2903.01 368.814C2897.66 365.157 2891.19 363.328 2883.59 363.328C2875.15 363.328 2867.7 365.157 2861.23 368.814C2855.04 372.19 2850.12 377.113 2846.46 383.584C2843.08 390.055 2841.39 397.651 2841.39 406.372V522ZM3020.93 416.078C3020.93 393.853 3025.85 374.441 3035.7 357.842C3045.83 340.962 3059.61 327.88 3077.06 318.596C3094.78 309.312 3114.9 304.67 3137.4 304.67C3159.91 304.67 3179.88 309.312 3197.33 318.596C3214.77 327.88 3228.41 340.962 3238.26 357.842C3248.39 374.441 3253.45 393.853 3253.45 416.078C3253.45 438.303 3248.39 457.715 3238.26 474.314C3228.41 490.913 3214.77 503.854 3197.33 513.138C3179.88 522.422 3159.91 527.064 3137.4 527.064C3114.9 527.064 3094.78 522.422 3077.06 513.138C3059.61 503.854 3045.83 490.913 3035.7 474.314C3025.85 457.715 3020.93 438.303 3020.93 416.078ZM3086.34 415.656C3086.34 426.347 3088.45 435.771 3092.67 443.93C3097.17 451.807 3103.22 457.997 3110.82 462.498C3118.41 466.718 3127.28 468.828 3137.4 468.828C3147.53 468.828 3156.39 466.718 3163.99 462.498C3171.59 457.997 3177.49 451.807 3181.71 443.93C3185.93 435.771 3188.04 426.347 3188.04 415.656C3188.04 404.965 3185.93 395.681 3181.71 387.804C3177.49 379.927 3171.59 373.878 3163.99 369.658C3156.39 365.157 3147.53 362.906 3137.4 362.906C3127.28 362.906 3118.41 365.157 3110.82 369.658C3103.22 373.878 3097.17 379.927 3092.67 387.804C3088.45 395.681 3086.34 404.965 3086.34 415.656ZM3356.12 522H3291.13V311H3352.32L3356.54 332.944C3363.01 323.941 3371.87 316.908 3383.13 311.844C3394.66 306.78 3407.32 304.248 3421.11 304.248C3446.14 304.248 3465.56 311.985 3479.34 327.458C3493.41 342.65 3500.44 364.031 3500.44 391.602V522H3435.45V407.216C3435.45 393.993 3432.08 383.443 3425.33 375.566C3418.57 367.407 3409.57 363.328 3398.32 363.328C3385.38 363.328 3375.11 367.267 3367.51 375.144C3359.92 382.74 3356.12 393.149 3356.12 406.372V522Z" fill="currentColor"/>
</svg>
